# xmcd CD Database Entry
#
# Track frame offsets:
# 150
# 24908
# 37866
# 62130
# 74893
# 99994
# 111819
# 136393
# 147921
# 174034
# 186713
# 211303
# 224545
# 246617
# 259578
# 284241
#
# Disc length: 3928 seconds
#
# Revision: 1
# Processed by: cddbd v1.4PL0 Copyright (c) Steve Scherf et al.
# Submitted via: tcd 2.0b
#
DISCID=020f5610
DTITLE=Various Artist - Masters Solo Drumming Championship (1997)
DYEAR=1900
DGENRE=
TTITLE0=Jim KilPatrick - March, Strathspey and Reel
TTITLE1=Jim Kilpatrick - Hornpipe and Jig
TTITLE2=Eric Ward - March, Strathspey and Reel
TTITLE3=Eric Ward - Hornpipe and Jig
TTITLE4=John Scillion - March, Strathspey and Reel
TTITLE5=John Sculiion - Hornpipe and Jig
TTITLE6=Gordon Brown - MArch, Strathspey and Reel
TTITLE7=Gordon Brown - Hornpipe and Jig
TTITLE8=Paul Turner - March, Strathspey and Reel
TTITLE9=James King - Hornpipe and Jig
TTITLE10=Jim Collins - March, Strathspey and Reel
TTITLE11=Jackie Houlden - Hornpipe and Jig
TTITLE12=Barry Wilson - March, Strathspey and Reel
TTITLE13=Allan Craig - Hornpipe and Jig
TTITLE14=Neil Cranston - March, Strathspey and Reel
TTITLE15=Arthur Cook - Hornpipe and Jig
EXTD=
EXTT0=
EXTT1=
EXTT2=
EXTT3=
EXTT4=
EXTT5=
EXTT6=
EXTT7=
EXTT8=
EXTT9=
EXTT10=
EXTT11=
EXTT12=
EXTT13=
EXTT14=
EXTT15=
PLAYORDER=
